<?xml version="1.0" encoding="utf-8"?>
<!-- Generator: Adobe Illustrator 28.2.0, SVG Export Plug-In . SVG Version: 6.00 Build 0)  -->
<svg version="1.1" id="Layer_1" xmlns="http://www.w3.org/2000/svg" xmlns:xlink="http://www.w3.org/1999/xlink" x="0px" y="0px"
	 viewBox="0 0 1920 1080" style="enable-background:new 0 0 1920 1080;" xml:space="preserve">
<style type="text/css">
	.st0{fill:#F3705E;}
	.st1{fill:#FFEAC5;}
	.st2{fill:#067F9E;}
	.st3{fill:#CEC1A0;}
	.st4{fill:#FEBF54;}
	.st5{fill:#FFFFFF;}
	.st6{opacity:0.2;}
	.st7{fill:#818181;}
	.st8{fill:#33BA9C;}
	.st9{fill:#50BFA3;}
	.st10{fill:#07A67F;}
</style>
<image style="overflow:visible;" width="570" height="272" xlink:href="form-img.jpg"  transform="matrix(1 0 0 1 675 404)">
</image>
<g>
	<g id="Layer_2_00000083065683363864789600000009170925420515100561_">
		<g id="_8">
			<rect x="675" y="403.5" class="st0" width="570" height="272.5"/>
			<circle class="st0" cx="960" cy="539.5" r="136"/>
			<path class="st1" d="M837.9,456.2v170.1h211.4V456.2H837.9z"/>
			<rect x="862.5" y="485.6" class="st2" width="75.5" height="75.9"/>
			<path class="st3" d="M956.9,486.6h68.7c2,0,3.6,1.6,3.6,3.6v0.1c0,2-1.6,3.6-3.6,3.6h-68.7c-2,0-3.6-1.6-3.6-3.6v-0.1
				C953.3,488.2,954.9,486.6,956.9,486.6z"/>
			<path class="st3" d="M956.9,502.8h68.7c2,0,3.6,1.6,3.6,3.6v0.1c0,2-1.6,3.6-3.6,3.6h-68.7c-2,0-3.6-1.6-3.6-3.6v-0.1
				C953.3,504.4,954.9,502.8,956.9,502.8z"/>
			<path class="st3" d="M956.9,519.1h68.7c2,0,3.6,1.6,3.6,3.6v0.1c0,2-1.6,3.6-3.6,3.6h-68.7c-2,0-3.6-1.6-3.6-3.6v-0.1
				C953.3,520.7,954.9,519.1,956.9,519.1z"/>
			<path class="st3" d="M956.9,535.3h68.7c2,0,3.6,1.6,3.6,3.6v0.1c0,2-1.6,3.6-3.6,3.6h-68.7c-2,0-3.6-1.6-3.6-3.6v-0.1
				C953.3,536.9,954.9,535.3,956.9,535.3z"/>
			<path class="st3" d="M956.9,551.5h68.7c2,0,3.6,1.6,3.6,3.6v0.1c0,2-1.6,3.6-3.6,3.6h-68.7c-2,0-3.6-1.6-3.6-3.6v-0.1
				C953.3,553.2,954.9,551.5,956.9,551.5z"/>
			<rect x="862.5" y="583.6" class="st3" width="20.5" height="20.5"/>
			<rect x="899" y="583.6" class="st3" width="20.5" height="20.5"/>
			<rect x="935.6" y="583.6" class="st3" width="20.5" height="20.5"/>
			<rect x="972.1" y="583.6" class="st3" width="20.5" height="20.5"/>
			<rect x="1008.6" y="583.6" class="st3" width="20.5" height="20.5"/>
			<path class="st4" d="M908.9,533h-17.3c-10.5,0-19,8.5-19,19v9.5h55.4V552C927.9,541.5,919.4,533,908.9,533z"/>
			<circle class="st5" cx="900.2" cy="514.4" r="16.9"/>
			<g class="st6">
				<path class="st7" d="M995.6,580L931.7,676c66.1,0,61,0,159.8,0L995.6,580z"/>
			</g>
			<path class="st4" d="M995.9,581.6l-2.4,14.8l-3.4,21.1l-55.6,55.6c-16.8-3.2-32.8-9.5-47.2-18.6l69.9-69.9l21.4-3.2l15-2.2
				c0.2,0,0.4,0,0.5,0c0.1,0,0.1,0,0.2,0c0.3,0.1,0.6,0.2,0.9,0.4c0.1,0,0.1,0.1,0.1,0.1l0.1,0.1c0.1,0.1,0.1,0.1,0.1,0.2
				c0,0,0.1,0.1,0.1,0.1c0,0.1,0.1,0.1,0.1,0.2c0,0,0,0,0,0.1c0,0.1,0.1,0.2,0.1,0.2c0,0.1,0,0.1,0,0.2c0,0,0,0.1,0,0.1v0
				C996,581.3,996,581.4,995.9,581.6z"/>
			<path class="st8" d="M978.6,581.4l15,15l2.4-14.8c0.2-1.1-0.6-2.2-1.7-2.4c-0.2,0-0.4,0-0.7,0L978.6,581.4z"/>
			<path class="st9" d="M966.6,594l-81.9,82c-7.3,0-8.7,0-18.4,0l90.9-91.4L966.6,594z"/>
			<path class="st10" d="M990.1,617.5L931.6,676c-5.7,0-1.3,0-18.8,0l67.9-67.9L990.1,617.5z"/>
			<path class="st8" d="M980.7,608.1L912.8,676c-8.4,0-11.1,0-28.1,0l81.9-82L980.7,608.1z"/>
		</g>
	</g>
</g>
</svg>
