<svg width="30" height="30" viewBox="0 0 30 30" fill="none" xmlns="http://www.w3.org/2000/svg">
<path d="M16.9878 12.841C16.2556 12.4069 15.4856 12.0724 14.6295 11.9821C13.1639 11.8277 12.0303 12.4066 11.1664 13.5691C11.0659 13.7044 10.9689 13.8427 10.8545 13.9708C11.0731 13.3269 11.3942 12.7383 11.8089 12.2008C12.61 11.1621 13.8378 10.5385 15.1495 10.5627C16.0789 10.5796 16.9573 10.8458 17.7975 11.2302C19.5634 12.0377 21.0931 13.1874 22.4912 14.5191C22.82 14.8069 22.6939 14.7858 23.0503 14.6246C24.3206 14.038 25.4487 13.2885 26.1603 12.0366C26.5309 11.3846 26.65 10.9621 26.7331 10.2083C26.7314 10.0991 26.7164 9.59298 26.7356 9.57715C27.167 10.8169 27.0392 12.0205 26.5462 13.2002C25.8828 14.7874 24.7792 16.0449 23.5156 17.1755C23.1673 17.4871 22.7881 17.7641 22.4306 18.0663C22.2856 18.1891 22.2087 18.1796 22.0978 18.0141C21.2364 16.7266 20.237 15.5538 19.1117 14.4902C18.8225 14.2169 18.5123 13.966 18.2117 13.7049" fill="#004AAC"/>
<path d="M3.07108 14.6331C3.03358 14.9128 3.0258 15.1967 3.05941 15.477C3.16108 16.3253 3.46525 17.1117 3.92858 17.845C5.0283 19.5861 6.5833 20.8389 8.30358 21.9142C8.51108 22.007 8.49969 21.9272 8.57969 21.7845C9.1783 20.7147 9.83858 19.6861 10.6086 18.7314C11.5691 17.54 12.6036 16.4264 13.9527 15.6575C15.9027 14.5461 17.7441 14.8384 19.2069 16.5153C19.215 16.5245 19.2241 16.5331 19.2341 16.5406L19.4 16.6631C18.955 15.8497 18.4491 15.0992 17.7366 14.5428C17.343 14.2356 16.6558 13.8514 16.1616 13.7806L15.7536 13.7203C14.7241 13.6084 13.8691 13.8572 12.7311 14.3611C12.7258 14.3636 12.7202 14.3661 12.7152 14.3692L12.4027 14.5472C12.3983 14.5497 12.3939 14.552 12.3891 14.5542C12.0766 14.6939 11.6269 14.9861 11.3466 15.1781C10.1447 16.0011 9.14858 17.0514 8.1008 18.0656C7.4058 18.7381 7.61358 18.7092 6.86469 18.3597C5.28608 17.6231 3.94469 16.7467 3.40636 15.1892C3.35747 15.0478 3.32108 14.902 3.29191 14.7553L3.1508 14.0434L3.07136 14.6339L3.07108 14.6331Z" fill="#FC7E14"/>
<path d="M5.75294 16.0841C5.75516 15.2563 6.34905 14.5799 7.06516 14.5447C8.04377 14.4963 8.67127 15.4874 8.54405 16.3144C8.42099 17.1133 7.89793 17.6347 7.25182 17.6633C6.41682 17.7002 5.75071 16.9983 5.75294 16.0841Z" fill="#FC7E14"/>
<path d="M24.369 12.1998C24.3599 13.0945 23.7743 13.7537 23.0199 13.774C22.1702 13.797 21.5127 12.967 21.5754 12.1048C21.6002 11.7637 21.6949 11.439 21.9182 11.1684C22.2554 10.7601 22.6879 10.5726 23.2132 10.6768C23.7338 10.7798 24.0696 11.119 24.2554 11.604C24.3332 11.8065 24.3663 11.9998 24.3688 12.1998H24.369Z" fill="#004AAC"/>
</svg>
